<svg xmlns="http://www.w3.org/2000/svg" fill="none" viewBox="0 0 283 64">
  <path fill="#000" d="M141 16c-11 0-19 7-19 18s9 18 20 18c7 0 13-3 16-9l-8-5c-2 3-5 4-8 4-5 0-9-3-10-7h28v-3c0-11-8-16-19-16zm-9 15c1-4 4-7 9-7s8 3 9 7h-18zm117-15c-11 0-19 7-19 18s9 18 20 18c7 0 13-3 16-9l-8-5c-2 3-5 4-8 4-5 0-9-3-10-7h28v-3c0-11-8-16-19-16zm-9 15c1-4 4-7 9-7s8 3 9 7h-18zM83 18l-14 24-14-24H26l26 44 26-44H83zm99 21c0 5 4 9 10 9 4 0 7-2 9-5l8 5c-4 6-10 9-17 9-11 0-20-7-20-18s9-18 20-18c7 0 13 3 17 9l-8 5c-2-3-5-5-9-5-6 0-10 4-10 9zm-30-29v12h-4v8h4v23h9V30h6v-8h-6V10h-9zm-45 12v12h-4v8h4v23h9V30h6v-8h-6V10h-9z"/>
</svg>

